<svg width="76" height="56" viewBox="0 0 76 56" fill="none" xmlns="http://www.w3.org/2000/svg">
<path d="M0.766571 3.63521L5.19031 0.74305L37.5468 10.1705V36.9583L0.766571 3.63521Z" fill="white"/>
<path d="M37.5394 37.7241C37.3561 37.7257 37.1787 37.6595 37.0412 37.5382L0.26843 4.18544C0.184142 4.10883 0.118577 4.01388 0.0768063 3.90791C0.0350352 3.80195 0.0181736 3.68781 0.0275136 3.57429C0.0368536 3.46077 0.0721416 3.35091 0.130671 3.2532C0.1892 3.15549 0.269399 3.07253 0.365075 3.01073L4.82599 0.118571C4.91533 0.0609852 5.01598 0.0232255 5.12115 0.00783497C5.22631 -0.00755553 5.33356 -0.000215422 5.43565 0.0293559L37.7475 9.47162C37.907 9.51798 38.0463 9.61638 38.1433 9.75112C38.2403 9.88587 38.2895 10.0492 38.2829 10.2151V36.9806C38.284 37.1249 38.2431 37.2664 38.1652 37.3878C38.0874 37.5093 37.9758 37.6055 37.8442 37.6646C37.7479 37.7057 37.644 37.7259 37.5394 37.7241ZM1.97844 3.72448L36.7959 35.278V10.743L5.31669 1.56093L1.97844 3.72448Z" fill="#003D31"/>
<path d="M74.3196 3.63521L70.1561 0.74305L37.807 10.1705V36.9583L74.3196 3.63521Z" fill="white"/>
<path d="M37.807 37.7241C37.7049 37.7249 37.6036 37.7047 37.5096 37.6646C37.3766 37.6066 37.2635 37.5109 37.1843 37.3894C37.105 37.2678 37.063 37.1257 37.0635 36.9806V10.2152C37.0569 10.0492 37.1061 9.88591 37.2031 9.75116C37.3001 9.61642 37.4394 9.51802 37.5989 9.47166L69.9479 0.0442696C70.0549 0.0111917 70.168 0.00270003 70.2787 0.0194361C70.3894 0.0361722 70.4949 0.077696 70.5873 0.140915L74.7434 3.03307C74.8346 3.09773 74.91 3.18211 74.9641 3.27994C75.0181 3.37776 75.0495 3.48653 75.0557 3.59813C75.0629 3.70874 75.0452 3.81955 75.0041 3.92246C74.9629 4.02538 74.8992 4.11777 74.8178 4.19291L38.3126 37.516C38.1766 37.647 37.9959 37.7215 37.807 37.7241ZM38.5505 10.7579V35.2929L73.1301 3.73195L70.0297 1.57585L38.5505 10.7579Z" fill="#003D31"/>
<path d="M33.6733 55.248L0.766571 44.9507V3.63522L33.6733 13.9325V55.248Z" fill="#FFFAA4"/>
<path d="M33.6509 55.9916C33.5795 56.0028 33.5068 56.0028 33.4353 55.9916L0.521216 45.6943C0.364554 45.6452 0.228541 45.5456 0.134396 45.4111C0.0402509 45.2767 -0.00672959 45.1148 0.000778286 44.9508V3.63528C0.000473944 3.51796 0.0279261 3.40224 0.0809059 3.29758C0.133886 3.19291 0.210881 3.10227 0.305599 3.03305C0.399431 2.96389 0.508216 2.91776 0.62316 2.89839C0.738103 2.87902 0.855985 2.88695 0.967301 2.92153L33.8963 13.1891C34.053 13.2382 34.189 13.3377 34.2831 13.4722C34.3773 13.6067 34.4242 13.7686 34.4167 13.9326V55.2481C34.4167 55.3635 34.3899 55.4773 34.3382 55.5806C34.2866 55.6838 34.2117 55.7736 34.1193 55.8429C33.9846 55.9441 33.8194 55.9965 33.6509 55.9916ZM1.51005 44.4155L32.9075 54.2369V14.4753L1.48775 4.64642L1.51005 44.4155Z" fill="#003D31"/>
<path d="M74.3196 44.9507L41.4129 55.248V13.9325L74.3196 3.63522V44.9507Z" fill="#FFFAA4"/>
<path d="M41.4129 55.9915C41.2521 55.9915 41.0955 55.9393 40.9668 55.8428C40.8745 55.7736 40.7996 55.6838 40.7479 55.5805C40.6963 55.4773 40.6694 55.3635 40.6694 55.248V13.9325C40.6619 13.7685 40.7089 13.6067 40.8031 13.4722C40.8972 13.3377 41.0332 13.2381 41.1899 13.189L74.0966 2.89176C74.2079 2.85717 74.3258 2.84925 74.4407 2.86863C74.5557 2.888 74.6644 2.93413 74.7583 3.00329C74.853 3.0725 74.93 3.16314 74.983 3.26781C75.036 3.37248 75.0634 3.4882 75.0631 3.60551V44.9136C75.0706 45.0776 75.0236 45.2395 74.9295 45.374C74.8353 45.5084 74.6993 45.608 74.5427 45.6571L41.6285 55.9544C41.5591 55.9781 41.4863 55.9907 41.4129 55.9915ZM42.1564 14.4753V54.2369L73.5761 44.4155V4.64638L42.1564 14.4753Z" fill="#003D31"/>
<path d="M50.082 29.5457C49.925 29.5434 49.7722 29.4942 49.6433 29.4045C49.5486 29.3353 49.4716 29.2446 49.4186 29.1399C49.3657 29.0353 49.3382 28.9196 49.3385 28.8022V19.2113C49.3386 19.0545 49.3883 18.9018 49.4804 18.7749C49.5726 18.6481 49.7025 18.5536 49.8515 18.505L67.4275 12.8247C67.5393 12.7879 67.6583 12.7781 67.7746 12.7962C67.891 12.8143 68.0013 12.8597 68.0967 12.9288C68.1914 12.998 68.2684 13.0887 68.3214 13.1934C68.3743 13.298 68.4018 13.4137 68.4015 13.5311V22.8544C68.4003 23.009 68.351 23.1593 68.2604 23.2846C68.1698 23.4099 68.0424 23.5038 67.8959 23.5532L50.3199 29.5011C50.2429 29.5263 50.1629 29.5413 50.082 29.5457ZM50.8255 19.7912V27.7688L66.9145 22.3265V14.5942L50.8255 19.7912Z" fill="#003D31"/>
<path d="M33.6807 55.248H41.4129L41.4129 13.9325H33.6807L33.6807 55.248Z" fill="#FFFAA4"/>
<path d="M41.413 55.9916H33.651C33.4538 55.9916 33.2647 55.9132 33.1252 55.7738C32.9858 55.6344 32.9075 55.4453 32.9075 55.2481V13.9326C32.9075 13.7354 32.9858 13.5463 33.1252 13.4068C33.2647 13.2674 33.4538 13.1891 33.651 13.1891H41.3906C41.5878 13.1891 41.7769 13.2674 41.9164 13.4068C42.0558 13.5463 42.1341 13.7354 42.1341 13.9326V55.2481C42.1342 55.4415 42.059 55.6273 41.9243 55.7661C41.7897 55.9049 41.6062 55.9858 41.413 55.9916ZM34.4167 54.5046H40.6695V14.6761H34.3944L34.4167 54.5046Z" fill="#003D31"/>
</svg>
