<svg width="51" height="56" viewBox="0 0 51 56" fill="none" xmlns="http://www.w3.org/2000/svg">
<path d="M0.319489 28C0.319489 43.2889 5.53797 55.6867 11.9749 55.6867H25.8575C19.4174 55.6867 14.1958 43.2889 14.1958 28C14.1958 12.711 19.4174 0.313217 25.8575 0.313217H11.9749C5.53797 0.313217 0.319489 12.7079 0.319489 28Z" fill="#003D31"/>
<path d="M25.8575 56H11.9749C8.72984 56 5.71026 53.0525 3.44558 47.6993C1.22788 42.4307 0 35.4362 0 28C0 20.5638 1.22161 13.5662 3.44558 8.3007C5.69773 2.94753 8.72984 0 11.9749 0H25.8575C25.9406 0 26.0202 0.0330011 26.079 0.0917439C26.1377 0.150487 26.1707 0.230159 26.1707 0.313234C26.1707 0.396309 26.1377 0.475982 26.079 0.534724C26.0202 0.593467 25.9406 0.626468 25.8575 0.626468C19.5928 0.626468 14.5121 12.9052 14.5121 28C14.5121 43.0948 19.6022 55.3735 25.8575 55.3735C25.9406 55.3735 26.0202 55.4065 26.079 55.4653C26.1377 55.524 26.1707 55.6037 26.1707 55.6868C26.1707 55.7698 26.1377 55.8495 26.079 55.9083C26.0202 55.967 25.9406 56 25.8575 56ZM11.9749 0.626468C5.71026 0.626468 0.632734 12.9052 0.632734 28C0.632734 43.0948 5.71966 55.3735 11.9749 55.3735H23.3078C21.0462 54.2459 18.982 51.6147 17.3344 47.6993C15.1135 42.4307 13.8888 35.4362 13.8888 28C13.8888 20.5638 15.1073 13.5662 17.3344 8.3007C18.982 4.38215 21.0462 1.75411 23.3078 0.626468H11.9749Z" fill="#003D31"/>
<path d="M44.1723 28C44.1723 43.2889 38.9538 55.6867 32.5137 55.6867H16.4166C22.8599 55.6867 28.0783 43.2889 28.0783 28C28.0783 12.711 22.8567 0.313217 16.4166 0.313217H32.5169C38.9695 0.313217 44.1723 12.7079 44.1723 28Z" fill="white"/>
<path d="M32.5137 56H16.4166C16.3335 56 16.2538 55.967 16.1951 55.9083C16.1364 55.8495 16.1034 55.7698 16.1034 55.6868C16.1034 55.6037 16.1364 55.524 16.1951 55.4653C16.2538 55.4065 16.3335 55.3735 16.4166 55.3735C22.6813 55.3735 27.7651 43.0948 27.7651 28C27.7651 12.9052 22.6813 0.626468 16.4166 0.626468C16.3335 0.626468 16.2538 0.593467 16.1951 0.534724C16.1364 0.475982 16.1034 0.396309 16.1034 0.313234C16.1034 0.230159 16.1364 0.150487 16.1951 0.0917439C16.2538 0.0330011 16.3335 0 16.4166 0H32.5168C35.7651 0 38.7815 2.94753 41.0493 8.3007C43.267 13.5662 44.4949 20.5638 44.4949 28C44.4949 35.4362 43.2733 42.4307 41.0493 47.6993C38.7909 53.0587 35.7619 56 32.5137 56ZM18.9726 55.3735H32.5137C38.7784 55.3735 43.859 43.0948 43.859 28C43.859 12.9052 38.769 0.626468 32.5137 0.626468H18.9726C21.2341 1.75411 23.2984 4.38528 24.9491 8.3007C27.1668 13.5662 28.3947 20.5607 28.3947 28C28.3947 35.4393 27.1731 42.4307 24.9491 47.6993C23.3077 51.6147 21.2341 54.2459 18.9726 55.3735Z" fill="#003D31"/>
<path d="M44.4699 10.7752H23.0071C20.5955 10.7752 18.6406 12.7301 18.6406 15.1417V40.0438C18.6406 42.4553 20.5955 44.4103 23.0071 44.4103H44.4699C46.8814 44.4103 48.8364 42.4553 48.8364 40.0438V15.1417C48.8364 12.7301 46.8814 10.7752 44.4699 10.7752Z" fill="white"/>
<path d="M44.4667 44.7235H22.9945C21.7544 44.7186 20.5665 44.2235 19.6898 43.3463C18.8132 42.4691 18.3189 41.2809 18.3148 40.0407V15.1574C18.3148 13.9145 18.8072 12.7223 19.6843 11.8417C20.5614 10.961 21.7516 10.4638 22.9945 10.4589H44.4542C45.6992 10.4605 46.8927 10.9563 47.7725 11.8372C48.6523 12.7182 49.1464 13.9123 49.1464 15.1574V40.0564C49.1382 41.2938 48.6421 42.478 47.7659 43.3519C46.8897 44.2257 45.7042 44.7186 44.4667 44.7235ZM22.9945 11.0853C21.92 11.0936 20.8923 11.5263 20.1354 12.289C19.3785 13.0518 18.9538 14.0828 18.9538 15.1574V40.0564C18.962 41.1255 19.3903 42.1485 20.1463 42.9045C20.9024 43.6605 21.9254 44.0889 22.9945 44.0971H44.4542C45.5282 44.0921 46.5567 43.6631 47.3159 42.9033C48.075 42.1436 48.5033 41.1147 48.5074 40.0407V15.1574C48.5075 14.0828 48.0828 13.0518 47.3259 12.289C46.569 11.5263 45.5412 11.0936 44.4667 11.0853H22.9945Z" fill="#003D31"/>
<path d="M43.3234 12.5294H24.1535C21.9945 12.5294 20.2443 14.2796 20.2443 16.4386V38.744C20.2443 40.9029 21.9945 42.6531 24.1535 42.6531H43.3234C45.4824 42.6531 47.2326 40.9029 47.2326 38.744V16.4386C47.2326 14.2796 45.4824 12.5294 43.3234 12.5294Z" fill="#FFFAA4"/>
<path d="M43.3234 42.9663H24.1503C23.0315 42.9654 21.9588 42.5206 21.1678 41.7296C20.3767 40.9385 19.9319 39.8658 19.931 38.747V16.4385C19.9319 15.3194 20.3766 14.2464 21.1676 13.4548C21.9586 12.6632 23.0313 12.2177 24.1503 12.2161H43.3234C44.4427 12.2177 45.5157 12.6631 46.3072 13.4546C47.0987 14.2461 47.5441 15.3191 47.5458 16.4385V38.747C47.5441 39.866 47.0986 40.9387 46.307 41.7297C45.5155 42.5207 44.4424 42.9654 43.3234 42.9663ZM24.1503 12.8425C23.1974 12.8442 22.2841 13.2237 21.6105 13.8978C20.937 14.5719 20.5583 15.4856 20.5575 16.4385V38.747C20.5592 39.6994 20.9382 40.6122 21.6116 41.2857C22.2851 41.9591 23.1979 42.3381 24.1503 42.3398H43.3234C44.2763 42.339 45.19 41.9603 45.8641 41.2868C46.5382 40.6133 46.9176 39.6999 46.9193 38.747V16.4385C46.9185 15.485 46.5393 14.5709 45.8652 13.8967C45.191 13.2225 44.2768 12.8434 43.3234 12.8425H24.1503Z" fill="#003D31"/>
<path d="M48.8332 18.484H49.8011C50.0345 18.484 50.2584 18.5767 50.4235 18.7418C50.5885 18.9069 50.6813 19.1308 50.6813 19.3642V22.8943C50.6813 23.1278 50.5885 23.3517 50.4235 23.5167C50.2584 23.6818 50.0345 23.7745 49.8011 23.7745H48.8332V18.484Z" fill="#003D31"/>
<path d="M49.8011 24.0845H48.8332C48.7501 24.0845 48.6705 24.0515 48.6117 23.9928C48.553 23.934 48.52 23.8544 48.52 23.7713V18.4839C48.52 18.4008 48.553 18.3212 48.6117 18.2624C48.6705 18.2037 48.7501 18.1707 48.8332 18.1707H49.8011C50.1171 18.1707 50.4202 18.296 50.6439 18.5191C50.8676 18.7422 50.9937 19.045 50.9945 19.361V22.8911C50.9937 23.2074 50.8677 23.5104 50.6441 23.7341C50.4204 23.9577 50.1174 24.0837 49.8011 24.0845ZM49.1465 23.4581H49.8011C49.8756 23.4581 49.9493 23.4434 50.0181 23.4149C50.0869 23.3864 50.1494 23.3447 50.202 23.292C50.2547 23.2394 50.2964 23.1769 50.3249 23.1081C50.3534 23.0393 50.3681 22.9656 50.3681 22.8911V19.361C50.3673 19.2111 50.3072 19.0677 50.2009 18.9621C50.0947 18.8564 49.9509 18.7971 49.8011 18.7971H49.1465V23.4581Z" fill="#003D31"/>
<path d="M48.8332 28.6766H49.6194C49.691 28.6766 49.7619 28.6907 49.828 28.7181C49.8941 28.7455 49.9542 28.7857 50.0048 28.8363C50.0554 28.8869 50.0956 28.947 50.123 29.0131C50.1503 29.0792 50.1644 29.1501 50.1644 29.2217V36.5419C50.1636 36.686 50.1058 36.8238 50.0037 36.9253C49.9016 37.0269 49.7634 37.0838 49.6194 37.0838H48.8269V28.6766H48.8332Z" fill="#003D31"/>
<path d="M49.6195 37.397H48.8239C48.7408 37.397 48.6611 37.364 48.6024 37.3052C48.5436 37.2465 48.5106 37.1668 48.5106 37.0837V28.6765C48.5106 28.5935 48.5436 28.5138 48.6024 28.455C48.6611 28.3963 48.7408 28.3633 48.8239 28.3633H49.6195C49.8463 28.3633 50.0638 28.4534 50.2241 28.6138C50.3845 28.7741 50.4746 28.9916 50.4746 29.2184V36.5387C50.4746 36.7658 50.3846 36.9836 50.2243 37.1445C50.064 37.3053 49.8466 37.3961 49.6195 37.397ZM49.1371 36.7705H49.6195C49.6804 36.7697 49.7386 36.7449 49.7814 36.7015C49.8242 36.6581 49.8481 36.5996 49.8481 36.5387V29.2184C49.8481 29.1884 49.8422 29.1587 49.8307 29.1309C49.8192 29.1032 49.8024 29.078 49.7812 29.0567C49.7599 29.0355 49.7347 29.0187 49.707 29.0072C49.6792 28.9957 49.6495 28.9898 49.6195 28.9898H49.1371V36.7705Z" fill="#003D31"/>
<path d="M23.7275 27.2075C23.6648 27.2073 23.6036 27.1883 23.5518 27.1529C23.5 27.1174 23.4601 27.0673 23.4371 27.0089C23.4141 26.9505 23.4093 26.8866 23.4231 26.8254C23.4369 26.7642 23.4687 26.7085 23.5145 26.6656L32.9617 17.7729C33.0204 17.7146 33.0998 17.6818 33.1825 17.6818C33.2653 17.6818 33.3447 17.7146 33.4033 17.7729C33.4327 17.802 33.456 17.8367 33.4719 17.8749C33.4878 17.913 33.496 17.954 33.496 17.9953C33.496 18.0367 33.4878 18.0776 33.4719 18.1158C33.456 18.154 33.4327 18.1886 33.4033 18.2177L23.9343 27.123C23.8781 27.1756 23.8045 27.2057 23.7275 27.2075Z" fill="#003D31"/>
<path d="M26.3054 36.1065C26.2416 36.1071 26.1791 36.0881 26.1263 36.0521C26.0735 36.0162 26.033 35.965 26.0102 35.9053C25.9874 35.8457 25.9833 35.7805 25.9986 35.7185C26.0138 35.6565 26.0477 35.6006 26.0955 35.5584L43.4362 19.975C43.4977 19.9195 43.5788 19.8906 43.6616 19.8947C43.7443 19.8988 43.8221 19.9356 43.8779 19.9969C43.9056 20.0277 43.927 20.0636 43.9408 20.1027C43.9546 20.1417 43.9605 20.1832 43.9582 20.2245C43.9559 20.2659 43.9453 20.3064 43.9272 20.3437C43.9092 20.381 43.8839 20.4143 43.8528 20.4417L26.5122 36.0251C26.4555 36.0766 26.382 36.1056 26.3054 36.1065Z" fill="#003D31"/>
<path d="M37.5881 37.3971C37.5254 37.3969 37.4641 37.3778 37.4123 37.3424C37.3606 37.307 37.3206 37.2568 37.2976 37.1984C37.2747 37.1401 37.2698 37.0761 37.2836 37.0149C37.2974 36.9537 37.3293 36.8981 37.3751 36.8552L43.0133 31.6242C43.074 31.5679 43.1546 31.5379 43.2374 31.5408C43.3201 31.5438 43.3984 31.5794 43.455 31.6398C43.4833 31.67 43.5054 31.7054 43.52 31.7442C43.5346 31.7829 43.5413 31.8241 43.5399 31.8655C43.5384 31.9069 43.5288 31.9475 43.5115 31.9851C43.4943 32.0227 43.4697 32.0566 43.4393 32.0846L37.8011 37.3125C37.7433 37.3666 37.6672 37.3968 37.5881 37.3971Z" fill="#003D31"/>
<path d="M22.9945 44.4104C22.9945 44.4104 24.6328 44.7236 24.4542 48.0219H40.5513L44.4542 44.4104H22.9945Z" fill="white"/>
<path d="M40.5639 48.3352H24.4668C24.4246 48.335 24.3828 48.3264 24.3441 48.3097C24.3053 48.293 24.2703 48.2686 24.2412 48.2381C24.2122 48.2072 24.1897 48.1707 24.1752 48.1309C24.1606 48.091 24.1543 48.0487 24.1567 48.0063C24.3133 45.0556 23.0008 44.7299 22.9444 44.7173C22.8687 44.7008 22.8017 44.6567 22.7566 44.5936C22.7115 44.5306 22.6913 44.453 22.7001 44.3759C22.7086 44.299 22.7454 44.2279 22.8032 44.1764C22.861 44.1249 22.9359 44.0967 23.0133 44.0971H44.473C44.5358 44.0974 44.597 44.1164 44.6488 44.1518C44.7006 44.1872 44.7405 44.2374 44.7635 44.2958C44.7864 44.3542 44.7913 44.4181 44.7775 44.4793C44.7637 44.5405 44.7318 44.5962 44.686 44.639L40.7831 48.2538C40.7233 48.3082 40.6447 48.3374 40.5639 48.3352ZM24.7925 47.7087H40.4542L43.6805 44.7236H24.0032C24.4229 45.2279 24.8238 46.1175 24.7925 47.7087Z" fill="#003D31"/>
<path d="M22.9945 10.7722C22.9945 10.7722 23.9718 8.50123 23.715 6.43076H39.8121C39.8121 6.43076 43.0071 9.80116 44.4667 10.7722H22.9945Z" fill="white"/>
<path d="M44.4667 11.0853H22.9945C22.9428 11.0853 22.8919 11.0724 22.8464 11.0479C22.8008 11.0234 22.7621 10.9881 22.7335 10.9449C22.705 10.9018 22.6876 10.8523 22.6828 10.8008C22.6781 10.7494 22.6862 10.6975 22.7063 10.6499C22.7063 10.6248 23.646 8.42907 23.4048 6.47136C23.399 6.42714 23.4027 6.38219 23.4157 6.33951C23.4287 6.29684 23.4506 6.25742 23.48 6.22391C23.5096 6.19106 23.5459 6.16487 23.5864 6.14706C23.6269 6.12924 23.6707 6.1202 23.7149 6.12054H39.812C39.8548 6.12027 39.8971 6.12875 39.9364 6.14545C39.9757 6.16215 40.0112 6.18672 40.0407 6.21764C40.072 6.2521 43.2138 9.56924 44.6264 10.5121C44.682 10.5494 44.7241 10.6035 44.7467 10.6666C44.7692 10.7296 44.771 10.7981 44.7517 10.8622C44.7325 10.9263 44.6932 10.9826 44.6396 11.0227C44.5861 11.0628 44.5211 11.0848 44.4542 11.0853H44.4667ZM23.4643 10.4588H43.5395C42.1206 9.27481 40.1472 7.22625 39.6899 6.74701H24.072C24.1082 8.01172 23.9019 9.27167 23.4643 10.4588Z" fill="#003D31"/>
</svg>
