<svg width="66" height="64" viewBox="0 0 66 64" fill="none" xmlns="http://www.w3.org/2000/svg">
<g filter="url(#filter0_d_1_72)">
<path d="M61.2468 28.3059H4.57721V55.4228H61.2468V28.3059Z" fill="#FF7D7D"/>
<path d="M61.2467 56H4.5772C4.42412 56 4.2773 55.9392 4.16906 55.8309C4.06081 55.7227 4 55.5759 4 55.4228V28.2944C4 28.1413 4.06081 27.9945 4.16906 27.8862C4.2773 27.778 4.42412 27.7172 4.5772 27.7172H61.2467C61.3998 27.7172 61.5466 27.778 61.6549 27.8862C61.7631 27.9945 61.8239 28.1413 61.8239 28.2944V55.4228C61.8239 55.5759 61.7631 55.7227 61.6549 55.8309C61.5466 55.9392 61.3998 56 61.2467 56ZM5.1544 54.8456H60.6695V28.8716H5.1544V54.8456Z" fill="#003D31"/>
<path d="M21.2006 15.4228H4.57721V28.3059H21.2006V15.4228Z" fill="#FF7D7D"/>
<path d="M21.2064 28.8831H4.5772C4.42412 28.8831 4.2773 28.8223 4.16906 28.714C4.06081 28.6058 4 28.459 4 28.3059V15.3997C4 15.2466 4.06081 15.0998 4.16906 14.9916C4.2773 14.8833 4.42412 14.8225 4.5772 14.8225H21.2064C21.3594 14.8225 21.5062 14.8833 21.6145 14.9916C21.7227 15.0998 21.7836 15.2466 21.7836 15.3997V28.2828C21.7867 28.3605 21.774 28.4381 21.7464 28.5108C21.7188 28.5835 21.6768 28.6499 21.6229 28.706C21.569 28.762 21.5043 28.8066 21.4327 28.8371C21.3611 28.8675 21.2841 28.8832 21.2064 28.8831ZM5.1544 27.7287H20.6292V15.9769H5.1544V27.7287Z" fill="#003D31"/>
<path d="M4.57721 41.1833C4.57721 41.57 61.2468 41.1833 61.2468 41.1833H4.57721Z" fill="#FF7D7D"/>
<path d="M18.6782 41.9509C4.52525 41.9509 4.38672 41.8124 4.1847 41.6104C4.13016 41.5569 4.08677 41.4932 4.05705 41.4228C4.02733 41.3525 4.01186 41.2769 4.01154 41.2006C4.01124 41.1072 4.03359 41.0151 4.07667 40.9323C4.11976 40.8495 4.1823 40.7783 4.25892 40.725C4.33554 40.6716 4.42396 40.6377 4.51659 40.626C4.60922 40.6143 4.7033 40.6253 4.79076 40.658C6.93795 40.935 46.1876 40.7272 61.2583 40.6234C61.4114 40.6234 61.5582 40.6842 61.6664 40.7924C61.7747 40.9007 61.8355 41.0475 61.8355 41.2006C61.8355 41.3536 61.7747 41.5004 61.6664 41.6087C61.5582 41.7169 61.4114 41.7778 61.2583 41.7778C61.1198 41.7778 47.0245 41.8701 33.0678 41.9221C27.1169 41.9509 22.4011 41.9509 18.6782 41.9509Z" fill="#003D31"/>
<path d="M33.5526 28.3059C33.4545 28.3059 33.5526 41.1833 33.5526 41.1833V28.3059Z" fill="#FF7D7D"/>
<path d="M33.5527 41.7605C33.3996 41.7605 33.2528 41.6996 33.1445 41.5914C33.0363 41.4832 32.9755 41.3363 32.9755 41.1833C32.8773 28.1674 32.912 28.1328 33.1429 27.9076C33.1968 27.8541 33.2608 27.8118 33.3311 27.7831C33.4014 27.7544 33.4767 27.7398 33.5527 27.7403C33.7058 27.7403 33.8526 27.8011 33.9608 27.9093C34.0691 28.0176 34.1299 28.1644 34.1299 28.3175C34.1359 28.3596 34.1359 28.4023 34.1299 28.4444C34.0779 29.1717 34.1299 36.4156 34.1299 41.189C34.1299 41.3421 34.0691 41.4889 33.9608 41.5972C33.8526 41.7054 33.7058 41.7662 33.5527 41.7662V41.7605Z" fill="#003D31"/>
<path d="M21.2064 56C21.0533 56 20.9065 55.9392 20.7982 55.831C20.69 55.7227 20.6292 55.5759 20.6292 55.4228V41.3738C20.6292 41.2207 20.69 41.0739 20.7982 40.9656C20.9065 40.8574 21.0533 40.7966 21.2064 40.7966C21.3594 40.7966 21.5062 40.8574 21.6145 40.9656C21.7227 41.0739 21.7836 41.2207 21.7836 41.3738V55.4401C21.779 55.5902 21.7162 55.7326 21.6085 55.8371C21.5007 55.9416 21.3565 56.0001 21.2064 56Z" fill="#003D31"/>
<path d="M44.1962 0.577209H19.2496C18.577 0.577209 18.0317 1.12247 18.0317 1.79509V11.417C18.0317 12.0897 18.577 12.6349 19.2496 12.6349H44.1962C44.8689 12.6349 45.4141 12.0897 45.4141 11.417V1.79509C45.4141 1.12247 44.8689 0.577209 44.1962 0.577209Z" fill="#FF7D7D"/>
<path d="M44.1962 13.2064H19.2554C18.7808 13.2064 18.3257 13.0178 17.9902 12.6823C17.6546 12.3467 17.4661 11.8916 17.4661 11.417V1.78933C17.4661 1.31477 17.6546 0.859647 17.9902 0.524084C18.3257 0.188521 18.7808 9.31098e-06 19.2554 9.31098e-06H44.2078C44.4432 -0.000750249 44.6765 0.0449692 44.8943 0.134551C45.1121 0.224133 45.31 0.355811 45.4768 0.52204C45.6435 0.68827 45.7758 0.885781 45.8661 1.10325C45.9564 1.32072 46.0029 1.55386 46.0029 1.78933V11.417C46.0029 11.6535 45.956 11.8876 45.865 12.1058C45.774 12.324 45.6407 12.5221 45.4727 12.6884C45.3047 12.8548 45.1054 12.9863 44.8863 13.0751C44.6672 13.164 44.4327 13.2086 44.1962 13.2064ZM19.2554 1.15441C19.087 1.15441 18.9255 1.2213 18.8064 1.34037C18.6874 1.45944 18.6205 1.62093 18.6205 1.78933V11.417C18.6205 11.5854 18.6874 11.7469 18.8064 11.866C18.9255 11.9851 19.087 12.0519 19.2554 12.0519H44.2078C44.3767 12.052 44.5388 11.9853 44.6588 11.8663C44.7788 11.7474 44.8469 11.586 44.8485 11.417V1.78933C44.8469 1.62041 44.7788 1.45892 44.6588 1.34002C44.5388 1.22111 44.3767 1.1544 44.2078 1.15441H19.2554Z" fill="#003D31"/>
</g>
<defs>
<filter id="filter0_d_1_72" x="0" y="0" width="65.8355" height="64" filterUnits="userSpaceOnUse" color-interpolation-filters="sRGB">
<feFlood flood-opacity="0" result="BackgroundImageFix"/>
<feColorMatrix in="SourceAlpha" type="matrix" values="0 0 0 0 0 0 0 0 0 0 0 0 0 0 0 0 0 0 127 0" result="hardAlpha"/>
<feOffset dy="4"/>
<feGaussianBlur stdDeviation="2"/>
<feComposite in2="hardAlpha" operator="out"/>
<feColorMatrix type="matrix" values="0 0 0 0 0 0 0 0 0 0 0 0 0 0 0 0 0 0 0.25 0"/>
<feBlend mode="normal" in2="BackgroundImageFix" result="effect1_dropShadow_1_72"/>
<feBlend mode="normal" in="SourceGraphic" in2="effect1_dropShadow_1_72" result="shape"/>
</filter>
</defs>
</svg>
